# 3ds Max Wavefront OBJ Exporter v0.97b - (c)2007 guruware
# File Created: 20.09.2019 09:27:55

mtllib sShotBullet.mtl

#
# object sShot
#

v  -44.9477 1.6938 1.5635
v  -88.1503 1.6938 -5.9561
v  -88.1503 8.8453 -0.7602
v  -88.1503 6.1137 7.6470
v  -88.1503 -2.7261 7.6470
v  -88.1503 -5.4577 -0.7602
v  -95.6698 -2.7261 -4.5200
v  -95.6698 6.1137 -4.5200
v  -95.6698 8.8453 3.8872
v  -95.6698 1.6938 9.0831
v  -95.6698 -5.4577 3.8872
v  -100.3172 1.6938 1.5635
# 12 vertices

vn 1.0000 0.0000 -0.0000
vn 0.1193 0.0000 -0.9929
vn 0.1193 0.9443 -0.3068
vn 0.1193 0.5836 0.8032
vn 0.1193 -0.5836 0.8032
vn 0.1193 -0.9443 -0.3068
vn -0.4472 -0.5257 -0.7236
vn -0.4472 0.5257 -0.7236
vn -0.4472 0.8507 0.2764
vn -0.4472 0.0000 0.8944
vn -0.4472 -0.8507 0.2764
vn -1.0000 0.0000 -0.0000
# 12 vertex normals

vt 0.6000 0.9999 16.7851
vt 0.5000 0.6476 16.7851
vt 0.7000 0.6476 16.7851
vt 0.8000 0.9999 16.7851
vt 0.9000 0.6476 16.7851
vt 0.0000 0.9999 16.7851
vt -0.1000 0.6476 16.7851
vt 0.1000 0.6476 16.7851
vt 0.2000 0.9999 16.7851
vt 0.3000 0.6476 16.7851
vt 0.4000 0.9999 16.7851
vt 0.4000 0.3524 16.7851
vt 0.6000 0.3524 16.7851
vt 0.8000 0.3524 16.7851
vt -0.2000 0.3524 16.7851
vt 0.0000 0.3524 16.7851
vt 0.2000 0.3524 16.7851
vt 0.7000 0.0001 16.7851
vt -0.1000 0.0001 16.7851
vt 0.1000 0.0001 16.7851
vt 0.3000 0.0001 16.7851
vt 0.5000 0.0001 16.7851
# 22 texture coords

o sShot
g sShot
usemtl wire_028028177
s 1
f 1/1/1 2/2/2 3/3/3 
f 1/4/1 3/3/3 4/5/4 
f 1/6/1 4/7/4 5/8/5 
f 1/9/1 5/8/5 6/10/6 
f 1/11/1 6/10/6 2/2/2 
f 2/2/2 7/12/7 8/13/8 
f 3/3/3 8/13/8 9/14/9 
f 4/7/4 9/15/9 10/16/10 
f 5/8/5 10/16/10 11/17/11 
f 6/10/6 11/17/11 7/12/7 
f 8/13/8 3/3/3 2/2/2 
f 9/14/9 4/5/4 3/3/3 
f 10/16/10 5/8/5 4/7/4 
f 11/17/11 6/10/6 5/8/5 
f 7/12/7 2/2/2 6/10/6 
f 12/18/12 9/14/9 8/13/8 
f 12/19/12 10/16/10 9/15/9 
f 12/20/12 11/17/11 10/16/10 
f 12/21/12 7/12/7 11/17/11 
f 12/22/12 8/13/8 7/12/7 
# 0 polygons - 20 triangles

